<svg xmlns="http://www.w3.org/2000/svg" width="42" height="42" viewBox="0 0 1000 1000">
  <defs>
    <path id="illustration" d="M373.65 86.1c-4.07 4.29-9.71 11.97-13.1 16.94-3.16 4.74-6.1 8.81-6.32 8.81s-3.61-4.52-7.68-10.16c-4.07-5.65-8.58-10.16-10.39-10.16-2.71 0-10.39 7.91-15.81 16.49-1.81 2.94-4.06 3.16-13.78 1.35-10.61-2.03-13.55-1.35-33.88 5.87-12.42 4.52-29.36 9.03-37.72 10.16-8.36.9-16.94 3.16-18.75 4.74-7 5.65-11.74 19.42-14.45 42.01-4.29 35.46-1.81 40.43 22.59 45.85 6.78 1.35 14.23 3.16 16.26 3.61 6.55 1.81 21.68 49.91 18.97 60.3-.68 3.16-8.36 13.78-16.71 23.71-15.81 18.97-27.55 38.85-27.55 46.98 0 2.49-2.71 7-5.87 10.16-3.16 2.94-9.49 10.39-14 16.49l-8.13 11.07-7.68-8.81c-4.07-4.74-14.91-18.97-23.71-31.39-9.03-12.2-24.17-32.52-33.65-44.72-16.49-21.01-17.62-23.04-17.62-33.43s-.9-11.97-10.16-21c-5.65-5.65-10.16-10.84-10.16-11.97 0-7-4.74-28.68-6.78-31.17-1.35-1.81-5.42-3.84-9.03-4.52-3.61-.9-9.03-3.39-12.2-5.87-8.13-6.32-18.52-9.03-25.3-6.55-7 2.71-18.97 27.33-20.78 42.01-1.36 13.78 2.71 22.36 16.26 32.98 14.68 11.29 23.26 22.81 26.43 34.33 1.36 5.2 10.84 26.43 21.23 47.66 29.81 60.75 68.89 142.97 68.89 145.22 0 4.97 37.72 37.49 63.01 54.43l27.33 18.3 13.78 27.78c15.36 30.27 43.14 72.27 57.59 86.28 4.97 4.97 10.39 11.52 11.97 14.23 3.39 6.55 2.03 31.17-5.42 88.99-4.52 36.36-5.65 41.11-11.52 49.46-17.84 25.3-19.2 28.01-18.52 35.91l.68 7.9 25.97.68c43.14 1.13 46.75-2.48 54.2-50.82 3.61-23.71 7.68-40.2 13.55-56.24 4.74-12.65 9.71-28.46 11.07-35.23 1.58-7 4.07-14.23 5.65-16.49 2.71-3.62 3.16-3.62 7.45 1.81 3.61 4.74 4.74 10.84 6.1 29.81.9 13.1 2.71 26.43 4.07 29.36 1.35 2.94 8.58 10.16 16.04 16.04 7.45 5.87 16.49 15.36 20.1 21l6.55 10.39-6.32 1.58c-3.61.9-14 2.26-23.26 3.16-22.13 1.81-38.85 9.26-43.82 19.88-5.42 11.52-4.52 14.45 5.87 19.65 8.36 4.29 11.74 4.74 30.04 3.39 11.07-.68 68.66-1.81 127.61-2.48 138.67-1.13 144.55-1.81 137.77-14.68-1.35-2.71-2.26-5.19-1.81-5.65s12.2.22 26.2 1.58c17.84 1.58 41.11 1.81 77.92 0 62.34-2.71 140.03 1.58 146.8 8.36 6.1 6.1-13.32 16.04-41.78 21.68-18.07 3.61-28.91 9.03-28.91 14.68 0 4.07 12.2 16.26 20.55 20.33 13.78 7.23 46.98 4.52 64.14-4.97 20.55-11.52 46.3-38.85 46.3-49.46 0-8.36-10.39-18.52-29.14-28.01-18.52-9.26-35.01-11.52-110.89-14.68-132.35-5.65-163.97-8.58-173.68-16.04-6.1-4.74-6.78-6.78-6.78-17.84-.23-6.78 1.36-24.62 3.16-39.52 4.97-39.07 4.29-57.59-4.52-136.64-8.37-73.87-12.66-96.23-23.95-123.11-5.65-13.55-9.71-19.2-28.46-37.49-30.72-30.04-51.27-46.75-65.5-53.08-6.78-3.16-27.55-9.94-46.07-15.58-18.52-5.42-35.46-11.07-37.72-12.2-6.1-3.39-10.84-9.49-14.91-20.55-2.26-5.65-7.68-15.81-12.65-22.59-13.1-18.97-14-24.39-9.71-67.08l3.61-37.04-6.32-19.42c-3.61-10.84-9.71-23.71-14-29.14-7.23-9.71-7.45-10.61-7.45-31.17 0-21.91-5.42-56.69-9.49-61.88-4.74-5.41-14.45-3.15-21.9 5.43z"/>
    <g id="default">
      <use href="#illustration" />
    </g>
    <g id="active">
      <use href="#illustration" />
    </g>
    <g id="new">
      <use href="#illustration" />
    </g>
  </defs>
</svg>
